<svg xmlns="http://www.w3.org/2000/svg" viewBox="0 0 693.54 1022.39"><defs><style>.cls-1,.cls-2,.cls-7,.cls-8{isolation:isolate;}.cls-2{font-size:36.14px;font-family:OpenSans, Open Sans;}.cls-2,.cls-5{fill:#3c3d3d;}.cls-3{fill:none;stroke:#231f20;stroke-miterlimit:10;stroke-width:2px;}.cls-4{fill:#231f20;}.cls-5{font-size:29px;font-family:OpenSansLight-Italic, Open Sans;font-style:italic;}.cls-6{fill:#337ab7;}.cls-7,.cls-8{font-size:24px;font-family:OpenSans-Semibold, Open Sans;font-weight:600;}.cls-7{fill:#fdfefe;}.cls-8{fill:#fff;}</style></defs><title>FlowChartV12</title><g id="Layer_1" data-name="Layer 1"><g id="Interested_in_using_the_Hub_" data-name="Interested in using the Hub " class="cls-1"><text class="cls-2" transform="translate(19.67 46.77)">Interested in using the Hub?</text></g><text class="cls-2" transform="translate(19.67 302.29)">Screen the library?</text><polyline class="cls-3" points="335.55 289.67 620.68 289.67 620.68 344.68"/><polygon class="cls-4" points="620.68 354.57 614.99 340.64 620.68 343.94 626.37 340.64 620.68 354.57"/><text class="cls-2" transform="translate(19.67 646.84)">Use the data or look at it?</text><text class="cls-2" transform="translate(216.15 393.03)">Choose between Approved,<tspan x="104.32" y="43.36">Clinical or Preclinical?</tspan></text><line class="cls-3" x1="332.04" y1="65.04" x2="332.04" y2="142.06"/><polygon class="cls-4" points="332.04 151.95 326.35 138.02 332.04 141.32 337.73 138.02 332.04 151.95"/><line class="cls-3" x1="95" y1="329.51" x2="95" y2="582.26"/><polygon class="cls-4" points="95 592.15 89.31 578.22 95 581.52 100.69 578.22 95 592.15"/><line class="cls-3" x1="95" y1="65.04" x2="95" y2="248.51"/><polygon class="cls-4" points="95 258.4 89.31 244.47 95 247.77 100.69 244.47 95 258.4"/><line class="cls-3" x1="518.57" y1="456.19" x2="518.57" y2="786.34"/><polygon class="cls-4" points="518.57 796.23 512.88 782.3 518.57 785.6 524.26 782.3 518.57 796.23"/><line class="cls-3" x1="290.43" y1="665.24" x2="290.43" y2="740.42"/><line class="cls-3" x1="94.49" y1="740.42" x2="429.96" y2="740.42"/><line class="cls-3" x1="95" y1="786.4" x2="95" y2="740.42"/><polygon class="cls-4" points="95 796.28 100.69 782.36 95 785.66 89.31 782.36 95 796.28"/><line class="cls-3" x1="429.69" y1="786.4" x2="429.69" y2="740.42"/><polygon class="cls-4" points="429.69 796.28 435.39 782.36 429.69 785.66 424 782.36 429.69 796.28"/><text class="cls-5" transform="translate(341.77 113.77)">I’m not sure yet.</text><text class="cls-5" transform="translate(31.25 160.72)">Yes!</text><text class="cls-5" transform="translate(459.25 277.7)">Yes!</text><text class="cls-5" transform="translate(41.62 463.32)">No</text><text class="cls-5" transform="translate(565.95 481.37)">No,<tspan x="-35.65" y="34.8">screen</tspan><tspan x="-33.35" y="69.6">all the</tspan><tspan x="-32.53" y="104.4">things</tspan></text><text class="cls-5" transform="translate(293.83 887.09)">Select sub-library</text><text class="cls-5" transform="translate(455.53 481.37)">Yes,<tspan x="-40.53" y="34.8">choose</tspan><tspan x="-14.64" y="69.6">from</tspan><tspan x="-23.89" y="104.4">3 sets</tspan></text><text class="cls-5" transform="translate(304.83 693.83)">Just <tspan x="0" y="34.8">browsing</tspan></text><text class="cls-5" transform="translate(165.39 693.83)">I’ll take it<tspan x="-13.58" y="34.8">from here</tspan></text><polyline class="cls-3" points="519.69 847.85 519.69 896.57 295.77 896.57 295.77 917.8"/><polygon class="cls-4" points="295.77 927.68 290.08 913.76 295.77 917.06 301.46 913.76 295.77 927.68"/><polyline class="cls-3" points="620.68 456.19 620.68 953.71 430.58 953.71"/><polygon class="cls-4" points="416.46 953.71 436.36 945.58 431.63 953.71 436.36 961.84 416.46 953.71"/></g><g id="darkbluebuttons"><g id="casestudies"><g id="Rectangle_1" data-name="Rectangle 1"><path class="cls-6" d="M237.52,160.07h187c4,0,7.28,2.91,7.28,6.51v39c0,3.59-3.26,6.51-7.28,6.51h-187c-4,0-7.28-2.92-7.28-6.51v-39C230.24,163,233.5,160.07,237.52,160.07Z"/></g><g id="Case_Studies" data-name="Case Studies" class="cls-1"><text class="cls-7" transform="translate(251.33 195.9)">CASE STUDIES</text></g></g><g id="browse"><g id="Rectangle_1-2" data-name="Rectangle 1"><path class="cls-6" d="M320.3,795.85H546.68c4.87,0,8.81,2.91,8.81,6.51v39c0,3.59-3.94,6.51-8.81,6.51H320.3c-4.87,0-8.82-2.92-8.82-6.51v-39C311.48,798.76,315.43,795.85,320.3,795.85Z"/></g><g id="Browse_Library" data-name="Browse Library" class="cls-1"><text class="cls-8" transform="translate(332.61 831.45)">BROWSE LIBRARY</text></g></g><g id="download"><g id="Rectangle_1-3" data-name="Rectangle 1"><path class="cls-6" d="M30.89,795.85H267.78c5.09,0,9.22,2.91,9.22,6.51v39c0,3.59-4.13,6.51-9.22,6.51H30.89c-5.1,0-9.22-2.92-9.22-6.51v-39C21.67,798.76,25.79,795.85,30.89,795.85Z"/></g><g id="Download_Data" data-name="Download Data" class="cls-1"><text class="cls-8" transform="translate(40.09 831.45)">DOWNLOAD DATA</text></g></g><g id="contact"><g id="Rectangle_1-4" data-name="Rectangle 1"><path class="cls-6" d="M237,927.69H409.73a6.62,6.62,0,0,1,6.73,6.5v39a6.62,6.62,0,0,1-6.73,6.5H237a6.61,6.61,0,0,1-6.72-6.5v-39A6.61,6.61,0,0,1,237,927.69Z"/></g><g id="Contact_Us" data-name="Contact Us" class="cls-1"><text class="cls-8" transform="translate(251.33 962.48)">CONTACT US</text></g></g></g></svg>